<svg enable-background="new 0 0 17.056 17.056" viewBox="0 0 17.056 17.056" xmlns="http://www.w3.org/2000/svg"><g fill="#030104"><path d="m11.298 8.02c1.295-.587 1.488-5.055.724-6.371-.998-1.718-5.742-1.373-7.24-.145-.172.61-.154 1.717-.146 2.597h4.702v.412h-4.701c0 .006-2.093.013-2.093.013-3.609 0-3.534 7.838 1.228 7.838 0 0 .175-1.736.481-2.606.945-2.685 4.915-.772 7.045-1.738zm-4.923-4.555c-.542 0-.981-.439-.981-.982 0-.542.439-.982.981-.982.543 0 .982.44.982.982.001.542-.439.982-.982.982z"/><path d="m13.12 4.691s-.125 1.737-.431 2.606c-.945 2.684-4.914.772-7.045 1.738-1.294.587-1.489 5.055-.724 6.371.997 1.719 5.741 1.374 7.24.145.172-.609.154-1.716.146-2.596h-4.703v-.412h4.701c0-.006 2.317-.013 2.317-.013 3.326 0 3.624-7.839-1.501-7.839zm-2.722 8.729c.542 0 .982.439.982.982 0 .542-.44.981-.982.981s-.981-.439-.981-.981c0-.543.439-.982.981-.982z"/></g></svg>