<svg enable-background="new 0 0 252.936 252.937" height="252.937" viewBox="0 0 252.936 252.937" width="252.936" xmlns="http://www.w3.org/2000/svg"><path d="m250.199 130.708c-3.234-4.784-8.961-7.645-15.317-7.645h-30.998c.326-4.672.447-8.541.485-11.318.027-2.639-2.171-4.779-4.816-4.779h-192.446c-2.642 0-4.844 2.135-4.807 4.779.273 20.652 5.577 102.097 71.59 121.932h-61.845c-3.909 0-8.245 2.954-9.659 6.604l-1.93 4.966c-1.421 3.646.586 6.604 4.506 6.604h196.727c3.911 0 5.928-2.959 4.509-6.604l-1.941-4.966c-1.419-3.649-5.74-6.604-9.661-6.604h-58.823c22.42-7.024 37.542-21.744 47.716-38.802 42.61-1.204 60.952-30.668 68.102-48.426 2.193-5.445 1.688-11.186-1.392-15.741zm-11.91 10.394c-6.496 16.144-19.919 35.003-47.23 38.816 6.179-14.669 9.516-29.828 11.299-42.513h32.524c1.876 0 3.006.682 3.436 1.33.382.565.372 1.359-.029 2.367z"/><path d="m101.503 100.738c1.011 1.162 2.429 1.755 3.839 1.755 1.186 0 2.371-.411 3.32-1.239 2.119-1.834 2.353-5.041.511-7.159-.119-.152-13.572-16.048-4.926-26.924 11.528-14.51 4.506-26.357-.821-30.59-2.184-1.746-5.386-1.386-7.131.807-1.724 2.18-1.381 5.349.775 7.096 1.232 1.053 6.924 6.681-.775 16.379-13.878 17.462 4.436 38.968 5.208 39.875z"/><path d="m128.654 10.094c2.156-1.755 2.499-4.919.765-7.096-1.745-2.193-4.938-2.553-7.131-.81-5.318 4.235-12.34 16.083-.812 30.592 8.646 10.877-4.807 26.778-4.938 26.924-1.83 2.117-1.605 5.325.513 7.16.959.831 2.145 1.239 3.321 1.239 1.419 0 2.837-.593 3.836-1.755.784-.907 19.09-22.413 5.22-39.887-7.709-9.686-2.011-15.321-.774-16.367z"/></svg>