<svg enable-background="new 0 0 312.553 312.553" viewBox="0 0 312.553 312.553" xmlns="http://www.w3.org/2000/svg"><path d="m302.553 0h-292.553c-5.523 0-10 4.478-10 10v292.553c0 5.522 4.477 10 10 10h292.553c5.523 0 10-4.478 10-10v-292.553c0-5.522-4.477-10-10-10zm-158.928 173.732c0 18.615-10.434 30.179-27.232 30.179-10.55 0-19.978-5.292-26.547-14.901-2.905-4.251-1.815-10.053 2.436-12.959 4.252-2.906 10.055-1.814 12.959 2.436 3.074 4.498 6.826 6.778 11.152 6.778 3.419 0 8.586 0 8.586-11.532v-47.467h-25.475c-5.149 0-9.323-4.174-9.323-9.323s4.174-9.323 9.323-9.323h34.798c5.149 0 9.323 4.174 9.323 9.323zm45.816 31.868c-12.499 0-25.251-5.27-33.279-13.753-3.54-3.74-3.377-9.642.362-13.181 3.741-3.54 9.644-3.377 13.181.362 4.486 4.74 12.417 7.925 19.736 7.925 7.493 0 16.244-2.188 16.244-8.351.048-5.81-3.045-7.986-17.415-12.339-12.677-3.839-31.835-9.642-31.835-31.725 0-16.5 14.306-27.586 35.599-27.586 9.479 0 19.815 2.874 26.975 7.502 4.324 2.795 5.564 8.567 2.769 12.892-2.796 4.324-8.568 5.564-12.892 2.769-4.112-2.658-11.042-4.516-16.852-4.516-7.82 0-16.952 2.342-16.952 8.939 0 7.165 4.189 9.516 18.594 13.879 12.277 3.718 30.83 9.337 30.656 30.262-.001 16.071-14.022 26.921-34.891 26.921z"/></svg>