<svg enable-background="new 0 0 591.704 591.704" viewBox="0 0 591.704 591.704" xmlns="http://www.w3.org/2000/svg"><path d="m590.045 126.94-81.6-122.4c-2.04-2.856-5.1-4.488-8.568-4.488h-408c-3.468 0-6.528 1.632-8.568 4.488l-81.6 122.4c-2.244 3.264-2.244 7.752-.204 11.22l285.6 448.8c1.836 2.856 5.1 4.692 8.568 4.692s6.732-1.836 8.568-4.692l285.6-448.8c2.448-3.468 2.448-7.752.204-11.22zm-289.068 10.812h147.9l-147.9 414.324zm0-10.2v-107.1h189.924l-38.352 107.1zm-10.2 0h-151.572l-38.352-107.1h189.924zm0 10.2v414.324l-147.9-414.324zm-22.644 381.072-242.556-381.072h106.284zm191.556-381.072h106.284l-242.352 381.072zm106.08-10.2h-102.408l35.7-99.96zm-473.076-99.96 35.7 99.96h-102.408z"/></svg>